<svg width="1920" height="960" viewBox="0 0 1920 960" fill="none" xmlns="http://www.w3.org/2000/svg">
<rect width="1920" height="960" fill="#1A1818"/>
<path d="M559.2 470V386H609.12V404H577.2V416H603.36V434H577.2V470H559.2ZM637.839 470L616.359 386H634.959L647.919 436.88L660.879 386H677.439L690.399 436.88L703.359 386H721.959L700.599 470H680.319L669.159 426.44L658.119 470H637.839ZM798.816 386V404H774.816V470H756.816V404H732.816V386H798.816ZM839.63 470V386H889.55V404H857.63V416H883.79V434H857.63V470H839.63ZM895.002 470L894.942 410H912.942L913.002 413.78C915.002 412.06 917.282 410.72 919.842 409.76C922.402 408.8 925.102 408.32 927.942 408.32C930.102 408.32 932.302 408.64 934.542 409.28L927.462 427.52C926.062 426.88 924.622 426.56 923.142 426.56C921.262 426.56 919.542 427.02 917.982 427.94C916.462 428.82 915.242 430.04 914.322 431.6C913.442 433.12 913.002 434.82 913.002 436.7V470H895.002ZM964.584 471.56C959.064 471.56 954.024 470.14 949.464 467.3C944.944 464.46 941.324 460.66 938.604 455.9C935.924 451.1 934.584 445.8 934.584 440C934.584 435.6 935.364 431.5 936.924 427.7C938.484 423.86 940.624 420.5 943.344 417.62C946.104 414.7 949.304 412.42 952.944 410.78C956.584 409.14 960.464 408.32 964.584 408.32C970.104 408.32 975.124 409.74 979.644 412.58C984.204 415.42 987.824 419.24 990.504 424.04C993.224 428.84 994.584 434.16 994.584 440C994.584 444.36 993.804 448.44 992.244 452.24C990.684 456.04 988.524 459.4 985.764 462.32C983.044 465.2 979.864 467.46 976.224 469.1C972.624 470.74 968.744 471.56 964.584 471.56ZM964.584 453.56C966.864 453.56 968.904 452.94 970.704 451.7C972.544 450.46 973.984 448.82 975.024 446.78C976.064 444.7 976.584 442.44 976.584 440C976.584 437.48 976.024 435.18 974.904 433.1C973.824 431.02 972.364 429.38 970.524 428.18C968.724 426.94 966.744 426.32 964.584 426.32C962.344 426.32 960.304 426.96 958.464 428.24C956.664 429.48 955.224 431.14 954.144 433.22C953.104 435.3 952.584 437.56 952.584 440C952.584 442.56 953.124 444.86 954.204 446.9C955.324 448.94 956.784 450.56 958.584 451.76C960.424 452.96 962.424 453.56 964.584 453.56ZM1059.92 431.66V470H1041.92V436.7C1041.92 434.82 1041.46 433.12 1040.54 431.6C1039.62 430.04 1038.4 428.82 1036.88 427.94C1035.36 427.02 1033.66 426.56 1031.78 426.56C1029.9 426.56 1028.18 427.02 1026.62 427.94C1025.1 428.82 1023.88 430.04 1022.96 431.6C1022.08 433.12 1021.64 434.82 1021.64 436.7V470H1003.64L1003.58 410H1021.58L1021.64 413.78C1023.64 412.06 1025.92 410.72 1028.48 409.76C1031.04 408.8 1033.74 408.32 1036.58 408.32C1040.9 408.32 1044.82 409.38 1048.34 411.5C1051.86 413.58 1054.66 416.38 1056.74 419.9C1058.86 423.42 1059.92 427.34 1059.92 431.66ZM1104.9 428H1094.7V470H1076.7V428H1068.9V410H1076.7V391.16H1094.7V410H1104.9V428ZM1114.55 425H1152.95V443H1114.55V425ZM1193.8 471.56C1188.28 471.56 1183.24 470.14 1178.68 467.3C1174.16 464.46 1170.54 460.64 1167.82 455.84C1165.14 451.04 1163.8 445.74 1163.8 439.94C1163.8 435.58 1164.58 431.5 1166.14 427.7C1167.7 423.86 1169.84 420.5 1172.56 417.62C1175.32 414.7 1178.52 412.42 1182.16 410.78C1185.8 409.14 1189.68 408.32 1193.8 408.32C1198.6 408.32 1202.98 409.38 1206.94 411.5C1210.94 413.58 1214.3 416.42 1217.02 420.02C1219.78 423.58 1221.74 427.6 1222.9 432.08C1224.06 436.56 1224.18 441.18 1223.26 445.94H1183.24C1183.8 447.34 1184.54 448.62 1185.46 449.78C1186.42 450.9 1187.58 451.8 1188.94 452.48C1190.34 453.16 1191.96 453.52 1193.8 453.56C1195.56 453.6 1197.18 453.22 1198.66 452.42C1200.18 451.62 1201.5 450.54 1202.62 449.18L1220.98 453.44C1218.54 458.76 1214.9 463.12 1210.06 466.52C1205.22 469.88 1199.8 471.56 1193.8 471.56ZM1182.58 432.74H1205.08C1204.52 431.02 1203.68 429.5 1202.56 428.18C1201.44 426.86 1200.12 425.82 1198.6 425.06C1197.12 424.3 1195.52 423.92 1193.8 423.92C1192.12 423.92 1190.52 424.3 1189 425.06C1187.52 425.82 1186.22 426.86 1185.1 428.18C1184.02 429.5 1183.18 431.02 1182.58 432.74ZM1289.13 431.66V470H1271.13V436.7C1271.13 434.82 1270.67 433.12 1269.75 431.6C1268.83 430.04 1267.61 428.82 1266.09 427.94C1264.57 427.02 1262.87 426.56 1260.99 426.56C1259.11 426.56 1257.39 427.02 1255.83 427.94C1254.31 428.82 1253.09 430.04 1252.17 431.6C1251.29 433.12 1250.85 434.82 1250.85 436.7V470H1232.85L1232.79 410H1250.79L1250.85 413.78C1252.85 412.06 1255.13 410.72 1257.69 409.76C1260.25 408.8 1262.95 408.32 1265.79 408.32C1270.11 408.32 1274.03 409.38 1277.55 411.5C1281.07 413.58 1283.87 416.38 1285.95 419.9C1288.07 423.42 1289.13 427.34 1289.13 431.66ZM1343.14 380H1361.14V470H1343.14V464.48C1341.3 466.56 1339.1 468.26 1336.54 469.58C1334.02 470.9 1331.14 471.56 1327.9 471.56C1323.54 471.56 1319.46 470.74 1315.66 469.1C1311.86 467.46 1308.5 465.2 1305.58 462.32C1302.7 459.4 1300.44 456.04 1298.8 452.24C1297.16 448.44 1296.34 444.36 1296.34 440C1296.34 435.64 1297.16 431.56 1298.8 427.76C1300.44 423.96 1302.7 420.62 1305.58 417.74C1308.5 414.82 1311.86 412.54 1315.66 410.9C1319.46 409.26 1323.54 408.44 1327.9 408.44C1331.14 408.44 1334.02 409.1 1336.54 410.42C1339.1 411.7 1341.3 413.4 1343.14 415.52V380ZM1328.14 454.28C1330.62 454.28 1332.88 453.64 1334.92 452.36C1336.96 451.08 1338.58 449.36 1339.78 447.2C1340.98 445.04 1341.58 442.64 1341.58 440C1341.58 437.36 1340.98 434.96 1339.78 432.8C1338.58 430.64 1336.96 428.92 1334.92 427.64C1332.88 426.36 1330.62 425.72 1328.14 425.72C1325.66 425.72 1323.4 426.36 1321.36 427.64C1319.36 428.92 1317.76 430.64 1316.56 432.8C1315.4 434.96 1314.82 437.36 1314.82 440C1314.82 442.64 1315.42 445.04 1316.62 447.2C1317.82 449.36 1319.42 451.08 1321.42 452.36C1323.46 453.64 1325.7 454.28 1328.14 454.28Z" fill="#DEDEDE"/>
<path d="M830.61 587H824.31V542.55H808.7V537.02H846.15V542.55H830.61V587ZM862.415 548.78C865.635 548.78 868.388 549.48 870.675 550.88C873.008 552.28 874.781 554.263 875.995 556.83C877.255 559.35 877.885 562.313 877.885 565.72V569.43H852.195C852.288 573.677 853.361 576.92 855.415 579.16C857.515 581.353 860.431 582.45 864.165 582.45C866.545 582.45 868.645 582.24 870.465 581.82C872.331 581.353 874.245 580.7 876.205 579.86V585.25C874.291 586.09 872.401 586.697 870.535 587.07C868.668 587.49 866.451 587.7 863.885 587.7C860.338 587.7 857.188 586.977 854.435 585.53C851.728 584.083 849.605 581.937 848.065 579.09C846.571 576.197 845.825 572.673 845.825 568.52C845.825 564.413 846.501 560.89 847.855 557.95C849.255 555.01 851.191 552.747 853.665 551.16C856.185 549.573 859.101 548.78 862.415 548.78ZM862.345 553.82C859.405 553.82 857.071 554.777 855.345 556.69C853.665 558.557 852.661 561.17 852.335 564.53H871.445C871.445 562.383 871.118 560.517 870.465 558.93C869.811 557.343 868.808 556.107 867.455 555.22C866.148 554.287 864.445 553.82 862.345 553.82ZM902.486 587.7C899.173 587.7 896.21 587.023 893.596 585.67C891.03 584.317 889 582.217 887.506 579.37C886.06 576.523 885.336 572.883 885.336 568.45C885.336 563.83 886.106 560.073 887.646 557.18C889.186 554.287 891.263 552.163 893.876 550.81C896.536 549.457 899.546 548.78 902.906 548.78C904.82 548.78 906.663 548.99 908.436 549.41C910.21 549.783 911.656 550.25 912.776 550.81L910.886 555.92C909.766 555.5 908.46 555.103 906.966 554.73C905.473 554.357 904.073 554.17 902.766 554.17C900.246 554.17 898.17 554.707 896.536 555.78C894.903 556.853 893.69 558.44 892.896 560.54C892.103 562.64 891.706 565.253 891.706 568.38C891.706 571.367 892.103 573.91 892.896 576.01C893.69 578.11 894.88 579.697 896.466 580.77C898.053 581.843 900.036 582.38 902.416 582.38C904.47 582.38 906.266 582.17 907.806 581.75C909.393 581.33 910.84 580.817 912.146 580.21V585.67C910.886 586.323 909.486 586.813 907.946 587.14C906.453 587.513 904.633 587.7 902.486 587.7ZM946.969 554.66H934.719V587H928.629V554.66H916.519V549.48H946.969V554.66ZM986.297 568.17C986.297 571.297 985.877 574.073 985.037 576.5C984.243 578.88 983.077 580.91 981.537 582.59C980.043 584.27 978.2 585.553 976.007 586.44C973.86 587.28 971.457 587.7 968.797 587.7C966.323 587.7 964.037 587.28 961.937 586.44C959.837 585.553 958.017 584.27 956.477 582.59C954.937 580.91 953.723 578.88 952.837 576.5C951.997 574.073 951.577 571.297 951.577 568.17C951.577 564.017 952.277 560.517 953.677 557.67C955.077 554.777 957.083 552.583 959.697 551.09C962.31 549.55 965.413 548.78 969.007 548.78C972.413 548.78 975.4 549.55 977.967 551.09C980.58 552.583 982.61 554.777 984.057 557.67C985.55 560.517 986.297 564.017 986.297 568.17ZM957.947 568.17C957.947 571.11 958.32 573.677 959.067 575.87C959.86 578.017 961.073 579.673 962.707 580.84C964.34 582.007 966.417 582.59 968.937 582.59C971.457 582.59 973.533 582.007 975.167 580.84C976.8 579.673 977.99 578.017 978.737 575.87C979.53 573.677 979.927 571.11 979.927 568.17C979.927 565.183 979.53 562.64 978.737 560.54C977.943 558.44 976.73 556.83 975.097 555.71C973.51 554.543 971.433 553.96 968.867 553.96C965.04 553.96 962.263 555.22 960.537 557.74C958.81 560.26 957.947 563.737 957.947 568.17ZM1026.23 558.93C1026.23 561.263 1025.53 563.083 1024.13 564.39C1022.73 565.697 1020.93 566.583 1018.74 567.05V567.33C1021.07 567.657 1023.1 568.497 1024.83 569.85C1026.56 571.157 1027.42 573.21 1027.42 576.01C1027.42 577.597 1027.12 579.067 1026.51 580.42C1025.95 581.773 1025.06 582.94 1023.85 583.92C1022.64 584.9 1021.07 585.67 1019.16 586.23C1017.25 586.743 1014.94 587 1012.23 587H996.059V549.48H1012.16C1014.82 549.48 1017.2 549.783 1019.3 550.39C1021.45 550.95 1023.13 551.93 1024.34 553.33C1025.6 554.683 1026.23 556.55 1026.23 558.93ZM1021.05 576.01C1021.05 573.863 1020.23 572.323 1018.6 571.39C1016.97 570.457 1014.56 569.99 1011.39 569.99H1002.22V582.03H1011.53C1014.61 582.03 1016.97 581.587 1018.6 580.7C1020.23 579.767 1021.05 578.203 1021.05 576.01ZM1020 559.7C1020 557.927 1019.35 556.643 1018.04 555.85C1016.78 555.01 1014.7 554.59 1011.81 554.59H1002.22V564.88H1010.69C1013.72 564.88 1016.03 564.46 1017.62 563.62C1019.21 562.78 1020 561.473 1020 559.7ZM1069.01 568.17C1069.01 571.297 1068.59 574.073 1067.75 576.5C1066.96 578.88 1065.79 580.91 1064.25 582.59C1062.76 584.27 1060.91 585.553 1058.72 586.44C1056.57 587.28 1054.17 587.7 1051.51 587.7C1049.04 587.7 1046.75 587.28 1044.65 586.44C1042.55 585.553 1040.73 584.27 1039.19 582.59C1037.65 580.91 1036.44 578.88 1035.55 576.5C1034.71 574.073 1034.29 571.297 1034.29 568.17C1034.29 564.017 1034.99 560.517 1036.39 557.67C1037.79 554.777 1039.8 552.583 1042.41 551.09C1045.02 549.55 1048.13 548.78 1051.72 548.78C1055.13 548.78 1058.11 549.55 1060.68 551.09C1063.29 552.583 1065.32 554.777 1066.77 557.67C1068.26 560.517 1069.01 564.017 1069.01 568.17ZM1040.66 568.17C1040.66 571.11 1041.03 573.677 1041.78 575.87C1042.57 578.017 1043.79 579.673 1045.42 580.84C1047.05 582.007 1049.13 582.59 1051.65 582.59C1054.17 582.59 1056.25 582.007 1057.88 580.84C1059.51 579.673 1060.7 578.017 1061.45 575.87C1062.24 573.677 1062.64 571.11 1062.64 568.17C1062.64 565.183 1062.24 562.64 1061.45 560.54C1060.66 558.44 1059.44 556.83 1057.81 555.71C1056.22 554.543 1054.15 553.96 1051.58 553.96C1047.75 553.96 1044.98 555.22 1043.25 557.74C1041.52 560.26 1040.66 563.737 1040.66 568.17ZM1093.26 548.78C1096.48 548.78 1099.24 549.48 1101.52 550.88C1103.86 552.28 1105.63 554.263 1106.84 556.83C1108.1 559.35 1108.73 562.313 1108.73 565.72V569.43H1083.04C1083.14 573.677 1084.21 576.92 1086.26 579.16C1088.36 581.353 1091.28 582.45 1095.01 582.45C1097.39 582.45 1099.49 582.24 1101.31 581.82C1103.18 581.353 1105.09 580.7 1107.05 579.86V585.25C1105.14 586.09 1103.25 586.697 1101.38 587.07C1099.52 587.49 1097.3 587.7 1094.73 587.7C1091.19 587.7 1088.04 586.977 1085.28 585.53C1082.58 584.083 1080.45 581.937 1078.91 579.09C1077.42 576.197 1076.67 572.673 1076.67 568.52C1076.67 564.413 1077.35 560.89 1078.7 557.95C1080.1 555.01 1082.04 552.747 1084.51 551.16C1087.03 549.573 1089.95 548.78 1093.26 548.78ZM1093.19 553.82C1090.25 553.82 1087.92 554.777 1086.19 556.69C1084.51 558.557 1083.51 561.17 1083.18 564.53H1102.29C1102.29 562.383 1101.97 560.517 1101.31 558.93C1100.66 557.343 1099.66 556.107 1098.3 555.22C1097 554.287 1095.29 553.82 1093.19 553.82Z" fill="#DEDEDE"/>
</svg>
